<svg xmlns="http://www.w3.org/2000/svg" width="120" height="120" viewBox="0 0 120 120">
<g>
<path d="M 0.00 0.00 L 120.00 0.00 L 120.00 120.00 L 0.00 120.00 ZM 56.25 98.23 C60.71,102.74 62.27,99.85 68.53,75.50 C71.65,63.40 74.38,53.31 74.61,53.07 C75.61,52.04 76.80,55.06 78.49,63.00 C79.74,68.84 80.35,71.98 82.25,73.46 C84.45,75.17 88.39,74.66 97.09,73.51 C97.37,73.48 97.67,73.44 97.96,73.40 C118.61,70.69 119.41,69.22 101.62,66.69 C95.64,65.84 90.41,64.77 90.01,64.32 C89.60,63.87 87.36,54.95 85.02,44.50 C82.68,34.05 80.36,24.71 79.85,23.75 C78.73,21.62 73.73,21.41 72.06,23.42 C71.41,24.21 68.26,35.93 65.04,49.49 C61.83,63.04 58.87,74.44 58.46,74.82 C58.31,74.96 58.18,75.09 58.04,75.10 C57.38,75.15 56.52,72.55 51.23,56.68 L 51.00 56.00 C45.51,39.52 45.50,39.50 42.32,39.19 C38.35,38.81 38.08,39.29 34.16,53.86 C32.48,60.11 30.96,65.37 30.79,65.54 C30.62,65.72 25.53,66.40 19.49,67.06 C9.12,68.18 5.81,69.14 7.26,70.60 C7.61,70.94 14.20,71.92 21.91,72.77 C32.23,73.90 36.28,74.02 37.26,73.20 C38.00,72.59 39.18,69.82 39.89,67.04 C40.60,64.27 41.71,62.01 42.34,62.03 C42.98,62.04 45.97,69.80 49.00,79.26 C52.03,88.73 55.29,97.26 56.25,98.23 Z" fill="rgb(220,4,72)"/>
<path d="M 64.72 89.57 C65.80,85.85 67.07,80.94 68.69,74.50 C71.88,61.85 74.60,51.31 74.74,51.08 C75.24,50.27 75.76,51.48 77.10,57.18 C76.11,53.62 75.32,52.34 74.61,53.07 C74.38,53.31 71.65,63.40 68.53,75.50 C67.03,81.37 65.79,85.99 64.72,89.57 ZM 45.54 69.14 C43.96,64.84 42.73,62.03 42.34,62.03 C41.71,62.01 40.60,64.27 39.89,67.04 C39.51,68.55 38.98,70.05 38.47,71.20 C39.05,69.83 39.66,67.91 40.09,65.98 C40.82,62.69 41.69,60.00 42.02,60.00 C42.24,60.00 43.64,63.67 45.54,69.14 ZM 61.11 98.67 C59.94,100.32 58.82,100.33 57.44,99.30 C58.91,100.04 60.01,100.08 61.11,98.67 ZM 79.72 68.44 C80.43,70.99 81.18,72.58 82.42,73.50 C83.33,74.18 84.50,74.49 86.12,74.55 C84.38,74.50 83.16,74.17 82.25,73.46 C81.05,72.53 80.37,70.94 79.72,68.44 ZM 56.07 98.01 C55.36,96.96 53.90,93.42 52.22,88.74 C53.87,93.29 55.20,96.50 56.07,98.01 ZM 37.30 73.17 C37.29,73.18 37.27,73.19 37.26,73.20 C37.03,73.39 36.62,73.54 35.99,73.62 C36.61,73.53 37.02,73.37 37.30,73.17 Z" fill="rgb(209,83,121)"/>
<path d="M 56.80 98.95 C55.73,98.33 52.74,90.78 48.86,78.98 C45.44,68.54 42.36,60.00 42.02,60.00 C41.69,60.00 40.82,62.69 40.09,65.98 C39.36,69.26 38.12,72.48 37.34,73.13 C36.25,74.04 32.70,73.95 21.91,72.77 C14.20,71.92 7.61,70.94 7.26,70.60 C5.81,69.14 9.12,68.18 19.49,67.06 C25.53,66.40 30.62,65.72 30.79,65.54 C30.96,65.37 32.48,60.11 34.16,53.86 C38.08,39.29 38.35,38.81 42.32,39.19 C45.50,39.50 45.51,39.52 51.00,56.00 C57.63,75.89 57.54,75.67 58.46,74.82 C58.87,74.44 61.83,63.04 65.04,49.49 C68.26,35.93 71.41,24.21 72.06,23.42 C73.73,21.41 78.73,21.62 79.85,23.75 C80.36,24.71 82.68,34.05 85.02,44.50 C87.36,54.95 89.60,63.87 90.01,64.32 C90.41,64.77 95.64,65.84 101.62,66.69 C119.41,69.22 118.61,70.69 97.96,73.40 C80.73,75.66 81.32,76.01 78.09,61.52 C75.99,52.10 75.35,50.10 74.74,51.08 C74.60,51.31 71.88,61.85 68.69,74.50 C62.44,99.32 61.34,101.59 56.80,98.95 Z" fill="rgb(252,247,250)"/>
</g>
</svg>